<svg width="400" height="400" viewBox="0 0 400 400" fill="none" xmlns="http://www.w3.org/2000/svg">
<rect width="400" height="400" rx="20" fill="#29313C"/>
<path d="M75 87C107.347 88.4929 115.674 97.5477 123 120M123 120L139 208.5M123 120H301C301 120 295.5 142.5 283 167C270.5 191.5 272.707 200.614 255.5 208.5H139M139 208.5C139 208.5 121.862 220.336 123 238.5C124.138 256.664 173.45 254.635 238.5 249.5" stroke="#A5B2F7" stroke-width="15" stroke-linecap="round" stroke-linejoin="round"/>
<path d="M75 87C107.347 88.4929 115.674 97.5477 123 120M123 120L139 208.5M123 120H301C301 120 295.5 142.5 283 167C270.5 191.5 272.707 200.614 255.5 208.5H139M139 208.5C139 208.5 121.862 220.336 123 238.5C124.138 256.664 173.45 254.635 238.5 249.5" stroke="url(#paint0_linear)" stroke-width="15" stroke-linecap="round" stroke-linejoin="round"/>
<circle cx="126" cy="289.5" r="16.5" stroke="#A5B2F7" stroke-width="15" stroke-linecap="round" stroke-linejoin="round"/>
<circle cx="126" cy="289.5" r="16.5" stroke="url(#paint1_linear)" stroke-width="15" stroke-linecap="round" stroke-linejoin="round"/>
<circle cx="254" cy="289.5" r="16.5" stroke="#A5B2F7" stroke-width="15" stroke-linecap="round" stroke-linejoin="round"/>
<circle cx="254" cy="289.5" r="16.5" stroke="url(#paint2_linear)" stroke-width="15" stroke-linecap="round" stroke-linejoin="round"/>
<defs>
<linearGradient id="paint0_linear" x1="188" y1="87" x2="188" y2="253.078" gradientUnits="userSpaceOnUse">
<stop stop-color="#DDA5F7"/>
<stop offset="1" stop-color="white" stop-opacity="0"/>
</linearGradient>
<linearGradient id="paint1_linear" x1="126" y1="265.5" x2="126" y2="313.5" gradientUnits="userSpaceOnUse">
<stop stop-color="#DDA5F7"/>
<stop offset="1" stop-color="white" stop-opacity="0"/>
</linearGradient>
<linearGradient id="paint2_linear" x1="254" y1="265.5" x2="254" y2="313.5" gradientUnits="userSpaceOnUse">
<stop stop-color="#DDA5F7"/>
<stop offset="1" stop-color="white" stop-opacity="0"/>
</linearGradient>
</defs>
</svg>
